<?xml version="1.0" encoding="UTF-8" standalone="no"?><!-- Generator: Gravit.io --><svg xmlns="http://www.w3.org/2000/svg" xmlns:xlink="http://www.w3.org/1999/xlink" style="isolation:isolate" viewBox="0 0 100 100" width="100pt" height="100pt"><defs><clipPath id="_clipPath_Wz4AC2XXxSRxmdsJmmtfYC8ZRsMskh6H"><rect width="100" height="100"/></clipPath></defs><g clip-path="url(#_clipPath_Wz4AC2XXxSRxmdsJmmtfYC8ZRsMskh6H)"><rect width="100" height="100" style="fill:rgb(0,0,0)" fill-opacity="0"/><path d=" M 74.231 4.532 C 74.023 13.828 66.805 21.453 57.535 22.17 C 57.535 22.276 57.535 22.378 57.535 22.48 C 57.532 28.7 54.336 34.483 49.071 37.794 C 43.806 41.105 37.209 41.481 31.602 38.79 C 28.224 43.636 22.694 46.529 16.787 46.538 C 10.88 46.547 5.34 43.672 1.947 38.837 C 1.546 41.385 1.345 43.962 1.349 46.542 C 1.352 70.089 18.253 90.239 41.441 94.339 C 64.628 98.439 87.415 85.307 95.492 63.188 C 103.569 41.07 94.608 16.344 74.235 4.536 L 74.231 4.532 Z  M 49.889 85.336 C 30.371 85.336 16.624 74.278 14.553 57.383 C 14.553 56.865 21.342 56.865 21.342 57.383 C 24.312 69.688 34.135 78.471 49.893 78.471 C 65.652 78.471 78.444 65.529 78.444 49.584 C 78.444 49.067 85.233 49.067 85.233 49.584 C 85.225 69.314 69.39 85.336 49.889 85.336 Z " fill-rule="evenodd" fill="rgb(70,70,70)"/></g></svg>